<svg version="1.2" xmlns="http://www.w3.org/2000/svg" viewBox="0 0 376 181" width="376" height="181"><style>.a{fill:#fff}.b{fill:#ddc9a3}.c{fill:#575756}.d{fill:#e9dbc2}.e{fill:#bc955c}</style><path fill-rule="evenodd" class="a" d="m274.2 99q-0.2 0.1-0.4 0l-6.5 10.5c0.8 1.3 0.4 3-0.8 3.8-1.4 0.8-3.1 0.4-3.9-0.9q-0.2-0.2-0.3-0.4l-18.1-1.9q-0.3 0.5-0.9 0.7c-1 0.5-2.3 0-2.8-1.1q-0.2-0.3-0.2-0.7l-13.6-10.4c-0.7 0.2-1.5-0.1-1.9-0.7-0.4-0.5-0.4-1.2-0.1-1.7l-6.7-13.9c-0.7 0-1.3-0.4-1.7-1-0.4-0.5-0.4-1.1-0.3-1.6l-13.4-12q-0.2 0.1-0.4 0.1l9 18.1c0.6 0 1.2 0.3 1.5 0.8 0.5 0.8 0.3 1.9-0.5 2.4-0.8 0.5-1.9 0.3-2.4-0.5-0.5-0.7-0.3-1.7 0.3-2.2l-9.2-18.4c-0.8-0.2-1.5-0.6-2-1.3-0.8-1.3-0.5-3 0.9-3.9 1.3-0.8 3-0.4 3.8 0.9q0.4 0.6 0.5 1.3l16.1 5q0.1-0.1 0.3-0.2c0.8-0.6 1.9-0.3 2.4 0.5q0.2 0.3 0.2 0.6l16.4 5.2q0.2-0.3 0.5-0.4c1-0.7 2.4-0.4 3 0.6 0.6 1 0.4 2.1-0.4 2.8l3.4 13.8c0.6 0 1.1 0.3 1.4 0.8 0.4 0.5 0.4 1.2 0.1 1.7l5.4 4.7c1-0.7 2.3-0.4 3 0.6 0.4 0.7 0.4 1.5 0.1 2.1l7 6.1q0.2-0.2 0.4-0.3c0.9-0.7 2.1-0.6 3-0.1l6.3-10q-0.4-0.4-0.4-1c-0.1-0.9 0.6-1.8 1.5-1.9 0.9-0.1 1.8 0.6 1.9 1.5 0.1 1-0.6 1.8-1.5 1.9zm-32.7 7.9l3.4-11q-0.2-0.1-0.3-0.3l-5.5 0.7c-0.2 0.6-0.6 1.2-1.2 1.6-1.3 0.8-3 0.5-3.9-0.9q0 0 0-0.1l-6.2 0.8q-0.1 0.1-0.1 0.2l12.9 9.8q0.3-0.6 0.9-0.9 0 0 0 0.1zm-23.4-28.9l2.2-5.5q-0.2-0.2-0.3-0.4-0.3-0.4-0.3-0.9l-15.8-5q-0.1 0.3-0.4 0.6l13.1 11.8q0.2-0.2 0.3-0.3c0.4-0.2 0.8-0.3 1.2-0.3zm1.8 3.4l14.9 11.8q0 0 0.1 0c0.5-0.4 1.1-0.5 1.7-0.5l3.7-13.2q-0.6-0.3-1-0.8-0.1-0.2-0.2-0.4l-18.9 2.5q-0.1 0.3-0.3 0.6zm24.9 11.9l-3.3-13.5-3.7 13.3q0.6 0.3 1 0.9 0.3 0.5 0.4 1l5.1-0.6c0.1-0.4 0.2-0.8 0.5-1.1zm7.1 8.9q-0.1-0.6 0.1-1.2l-5.5-4.8q-0.2 0.1-0.4 0.1l-3.2 10.4q0.5 0.1 0.9 0.4zm-13.3-25.1l-15.8-5q-0.1 0.3-0.5 0.5-0.4 0.3-0.8 0.3l-2.2 5.4q0.4 0.3 0.6 0.7 0.2 0.2 0.3 0.5zm-19.1 5.6l6.1 12.7c0.8-0.3 1.6 0 2 0.7q0.1 0.2 0.2 0.4l5.8-0.8q-0.1-0.8 0.3-1.5zm25.1 26.2l17.5 1.8q0-0.4 0.2-0.7l-7.1-6.2c-0.9 0.6-2.1 0.4-2.8-0.4l-7.9 4.8q0.1 0.3 0.1 0.7z"/><path fill-rule="evenodd" class="a" d="m120.7 66.7q1.4 2.2 1.3 5.2 0.1 3-1.3 5.2-1.4 2.2-3.9 3.5-2.4 1.2-5.7 1.2h-9v-19.8h9q3.3 0 5.7 1.2 2.5 1.3 3.9 3.5zm-3.3 5.2q0-2.8-1.8-4.5-1.7-1.6-4.7-1.6h-4.2v12.2h4.2q3 0 4.7-1.6 1.8-1.7 1.8-4.5z"/><path class="a" d="m133.5 62l-8.8 19.8h4.7l6.3-15.3 4.9 11.7c-0.7 0.4-1.4 0.6-2.1 0.4-0.5-0.2-1-0.4-1.4-0.6q-0.4-0.3-1-0.3c-1 0-1.7 0.8-1.7 1.8 0 0.9 0.7 1.7 1.7 1.7q0.6 0 1-0.3c0.2-0.1 0.4-0.1 0.6-0.2 0.7-0.4 1.5-0.6 2.2-0.3 0.7 0.3 1.4 0.9 2.1 1.2l0.1 0.2h4.8l-8.9-19.8z"/><path class="a" d="m163.7 62h-17.2v3.7h6.3v16.1h4.6v-16.1h6.3z"/><path class="a" d="m185.5 81.8l-8.9-19.8h-4.5l-8.8 19.8h4.7l6.3-15.3 3.5 8.5q-0.9 0.3-1.7-0.3-0.2-0.2-0.5-0.4 0 0 0 0-0.4-0.2-0.9-0.2c-0.9 0-1.7 0.7-1.7 1.7 0 1 0.8 1.7 1.7 1.7q0.5 0 0.9-0.2 0 0 0 0 0.3-0.2 0.5-0.4 0.8-0.6 1.8-0.2c0.3 0.1 0.6 0.3 0.9 0.6l1.9 4.5h4.8z"/><path class="b" d="m120 112.5l-0.1-12.9-6.4 10.7h-1.6l-6.4-10.6v12.8h-3.5v-19.5h3l7.8 12.9 7.6-12.9h3v19.5z"/><path class="b" d="m143.4 109.5v3h-14.7v-19.5h14.3v3h-10.7v5.1h9.5v3h-9.5v5.4zm-6-22h4.1l-4.9 3.9h-3z"/><path class="b" d="m166 93h3.6v19.5h-3.6z"/><path class="b" d="m178.6 111.5q-2.4-1.3-3.8-3.6-1.3-2.3-1.3-5.2 0-2.8 1.4-5.1 1.3-2.3 3.7-3.6 2.4-1.3 5.4-1.3 2.4 0 4.4 0.8 2 0.9 3.3 2.5l-2.3 2.2q-2.1-2.3-5.2-2.3-2.1 0-3.6 0.9-1.6 0.8-2.5 2.4-0.9 1.6-0.9 3.6 0 1.9 0.9 3.5 0.9 1.6 2.5 2.5 1.5 0.8 3.6 0.8 3.1 0 5.2-2.3l2.3 2.2q-1.3 1.6-3.3 2.5-2 0.8-4.5 0.8-2.9 0-5.3-1.3z"/><path class="c" d="m214 102.8q0 0.2-0.1 0.5 0 0.3 0 0.5 0 0.2 0 0.3-0.1 0.2-0.1 0.4 0 0.2-0.1 0.4 0 0.1 0 0.1 0 0.2-0.1 0.4 0 0.1-0.1 0.2 0 0.1 0 0.3-0.1 0.1-0.1 0.2-0.1 0.1-0.1 0.3-0.1 0.1-0.1 0.2 0 0 0 0.1-0.1 0-0.1 0.1-0.1 0.1-0.1 0.3-0.5 0.9-1.1 1.7-0.1 0.1-0.2 0.2-0.1 0.2-0.3 0.4 0 0.1-0.1 0.1-0.1 0.1-0.2 0.2 0 0 0 0.1-0.1 0-0.1 0.1-0.1 0-0.1 0.1 0 0 0 0-0.1 0-0.1 0.1-0.1 0.1-0.2 0.2-0.1 0-0.1 0 0 0 0 0.1-0.1 0-0.2 0.1 0 0-0.1 0.1 0 0 0 0-0.1 0-0.1 0 0 0.1-0.1 0.1 0 0 0 0-0.1 0.1-0.2 0.2 0 0 0 0-0.1 0-0.2 0.1-0.1 0.1-0.1 0.1-0.1 0.1-0.2 0.1-0.1 0.1-0.2 0.1 0 0.1 0 0.1-0.6 0.3-1.2 0.6 0 0 0 0-0.2 0.1-0.4 0.1 0 0 0 0 0 0-0.1 0-0.1 0.1-0.2 0.1 0 0.1-0.1 0.1 0 0-0.1 0-0.1 0.1-0.2 0.1-0.1 0-0.1 0-0.1 0-0.2 0.1-0.1 0-0.2 0-0.1 0-0.2 0.1-0.1 0-0.2 0 0 0 0 0-0.1 0-0.2 0-0.1 0.1-0.1 0.1-0.1 0-0.2 0-0.1 0-0.3 0-0.1 0-0.2 0.1 0 0-0.1 0 0 0 0 0-0.1 0-0.2 0-0.1 0-0.2 0 0 0 0 0h-0.1q-0.2 0-0.4 0c-5.6 0-10.1-4.5-10.1-10q0-0.4 0-0.7 0-0.1 0-0.2 0-0.1 0-0.1c0.2 1.6 1.6 2.9 3.3 2.9q0.1 0 0.2-0.1 0.1 0.2 0.2 0.4-0.1 0 0 0 0 0.2 0.1 0.3 0 0.2 0.1 0.4 0.1 0.1 0.1 0.1 0.1 0.2 0.2 0.3 0.1 0.2 0.2 0.4 0.1 0.2 0.2 0.3c0.7 1 1.7 1.8 2.9 2.2q1.2 0.6 2.6 0.6c3.9 0 7-3.3 6.8-7.3-0.2-3.3-2.9-6-6.2-6.3-1.9-0.2-3.7 0.4-5 1.5q0 0 0 0c-1.1 0.5-2 0.2-2.4 0.1-0.5 0-1.2 0.1-1.8 0.4-0.1 0-0.2-0.1-0.2-0.2 1.8-3.2 5.4-5.3 9.4-5.1 5 0.3 9.1 4.3 9.4 9.3q0.1 0.4 0.1 0.8z"/><path class="c" d="m214 102.8q0 0.2-0.1 0.5 0 0.3 0 0.5 0 0.2 0 0.3-0.1 0.2-0.1 0.4 0 0.2-0.1 0.4 0 0.1 0 0.1 0 0.2-0.1 0.4 0 0.1-0.1 0.2 0 0.1 0 0.3-0.1 0.1-0.1 0.2-0.1 0.1-0.1 0.3-0.1 0.1-0.1 0.2 0 0.1-0.1 0.2-0.1 0.1-0.1 0.3-0.5 0.9-1 1.7-0.1 0.1-0.3 0.2-0.1 0.2-0.3 0.4 0 0.1-0.1 0.1 0 0.1-0.1 0.1 0 0.1-0.1 0.1 0 0 0 0.1-0.1 0.1-0.2 0.1 0 0.1 0 0.1 0 0 0 0-0.1 0-0.1 0.1-0.2 0.1-0.3 0.2 0 0 0 0.1-0.2 0.1-0.3 0.2 0 0 0 0-0.1 0-0.1 0 0 0.1-0.1 0.1-0.1 0.1-0.2 0.2 0 0 0 0-0.1 0-0.2 0.1-0.1 0.1-0.1 0.1-0.1 0.1-0.2 0.1-0.1 0.1-0.2 0.1 0 0.1 0 0.1-0.6 0.3-1.2 0.6 0 0 0 0-0.2 0.1-0.4 0.1 0 0 0 0 0 0-0.1 0-0.1 0.1-0.2 0.1 0 0.1-0.1 0.1 0 0-0.1 0-0.1 0.1-0.2 0.1-0.1 0-0.1 0-0.1 0-0.2 0.1-0.1 0-0.2 0-0.1 0-0.2 0.1-0.1 0-0.2 0 0 0 0 0-0.2 0-0.3 0.1-0.1 0-0.2 0-0.1 0-0.3 0-0.1 0.1-0.2 0.1 0 0-0.1 0 0 0 0 0-0.1 0-0.2 0-0.1 0-0.2 0 0 0 0 0h-0.1q-0.2 0-0.4 0c-5.6 0-10.1-4.5-10.1-10q0-0.4 0-0.7 0-0.1 0-0.2 0-0.1 0-0.1c0.2 1.6 1.6 2.9 3.3 2.9q0.1 0 0.2 0 0.1 0.2 0.2 0.3-0.1 0.1 0 0.1 0 0.1 0.1 0.2 0 0.2 0.1 0.4 0.1 0.1 0.1 0.2 0.1 0.1 0.2 0.2 0.1 0.2 0.2 0.4 0.1 0.2 0.2 0.3c0.7 1 1.7 1.8 2.9 2.3q1.2 0.5 2.6 0.5c3.9 0 7-3.3 6.8-7.3-0.2-3.3-2.9-6-6.2-6.3-1.9-0.2-3.7 0.4-5 1.5q0 0 0 0c-1.1 0.5-2 0.2-2.4 0.1-0.5 0-1.2 0.1-1.8 0.4-0.1 0-0.2-0.1-0.2-0.2 1.8-3.2 5.4-5.3 9.4-5.1 5 0.3 9.1 4.3 9.4 9.4q0.1 0.3 0.1 0.7z"/><path class="b" d="m214 102.8q0 0.2-0.1 0.5 0 0.3 0 0.5 0 0.2 0 0.3-0.1 0.2-0.1 0.4 0 0.2-0.1 0.4 0 0.1 0 0.1 0 0.2-0.1 0.4 0 0.1-0.1 0.2 0 0.1 0 0.3-0.1 0.1-0.1 0.2-0.1 0.1-0.1 0.3-0.1 0.1-0.1 0.2 0 0 0 0.1-0.1 0-0.1 0.1-0.1 0.1-0.1 0.3-0.5 0.9-1.1 1.7-0.1 0.1-0.2 0.2-0.1 0.2-0.3 0.4 0 0.1-0.1 0.1-0.1 0.1-0.2 0.2 0 0 0 0.1-0.1 0-0.1 0.1-0.1 0-0.1 0.1 0 0 0 0-0.1 0-0.1 0.1-0.1 0.1-0.2 0.2-0.1 0-0.1 0 0 0 0 0.1-0.1 0-0.2 0.1 0 0-0.1 0.1 0 0 0 0-0.1 0-0.1 0 0 0.1-0.1 0.1 0 0 0 0-0.1 0.1-0.2 0.2 0 0 0 0-0.1 0-0.2 0.1-0.1 0.1-0.1 0.1-0.1 0.1-0.2 0.1-0.1 0.1-0.2 0.1 0 0.1 0 0.1-0.6 0.3-1.2 0.6 0 0 0 0-0.2 0.1-0.4 0.1 0 0 0 0 0 0-0.1 0-0.1 0.1-0.2 0.1 0 0.1-0.1 0.1 0 0-0.1 0-0.1 0.1-0.2 0.1-0.1 0-0.1 0-0.1 0-0.2 0.1-0.1 0-0.2 0-0.1 0-0.2 0.1-0.1 0-0.2 0 0 0 0 0-0.1 0-0.2 0-0.1 0.1-0.1 0.1-0.1 0-0.2 0-0.1 0-0.3 0-0.1 0-0.2 0.1 0 0-0.1 0 0 0 0 0-0.1 0-0.2 0-0.1 0-0.2 0 0 0 0 0h-0.1q-0.2 0-0.4 0c-5.6 0-10.1-4.5-10.1-10q0-0.4 0-0.7 0-0.1 0-0.2 0-0.1 0-0.1c0.2 1.6 1.6 2.9 3.3 2.9q0.1 0 0.2-0.1 0.1 0.2 0.2 0.4-0.1 0 0 0 0 0.2 0.1 0.3 0 0.2 0.1 0.4 0.1 0.1 0.1 0.1 0.1 0.2 0.2 0.3 0.1 0.2 0.2 0.4 0.1 0.2 0.2 0.3c0.7 1 1.7 1.8 2.9 2.2q1.2 0.6 2.6 0.6c3.9 0 7-3.3 6.8-7.3-0.2-3.3-2.9-6-6.2-6.3-1.9-0.2-3.7 0.4-5 1.5q0 0 0 0c-1.1 0.5-2 0.2-2.4 0.1-0.5 0-1.2 0.1-1.8 0.4-0.1 0-0.2-0.1-0.2-0.2 1.8-3.2 5.4-5.3 9.4-5.1 5 0.3 9.1 4.3 9.4 9.3q0.1 0.4 0.1 0.8z"/><path class="d" d="m197.3 104.6q-0.1 0.1-0.2 0.1c-1.7 0-3.1-1.3-3.2-3q-0.1 0.5-0.1 1c0 5.6 4.5 10.1 10.1 10.1 2.3 0 4.4-0.8 6.1-2.1 0.2-0.1 2.3-1.7 3.2-4.1-3.2 3.4-7.9 4.3-11.9 2.5-1.8-0.9-3.3-2.3-4-4.5z"/><path class="d" d="m162.4 112.5h-2.5c-0.2 0-0.4-0.1-0.6-0.3l-4.1-5.8 2.1-2.8 5.6 7.8c0.4 0.5 0 1.1-0.5 1.1z"/><path class="b" d="m156.2 102.6l-2 2.8-5.2 7.1h-4.2l7.4-9.9-7-9.6h4.1l5 6.8z"/><path class="e" d="m162.3 94.2l-5 6.9-2.1-2.6 3.9-5.2c0.1-0.2 0.4-0.3 0.6-0.3h2c0.6 0 1 0.7 0.6 1.2z"/><path class="d" d="m162.3 94.2l-5 6.9-2.1-2.6 3.9-5.2c0.1-0.2 0.4-0.3 0.6-0.3h2c0.6 0 1 0.7 0.6 1.2z"/><path class="d" d="m197.1 105.4c-1.8 0-3.3-1.5-3.3-3.3 0-1.8 1.5-3.3 3.3-3.3 1.8 0 3.3 1.5 3.3 3.3 0 1.8-1.5 3.3-3.3 3.3z"/></svg>