<svg width="16" height="16" viewBox="0 0 16 16" fill="none" xmlns="http://www.w3.org/2000/svg">
<path fill-rule="evenodd" clip-rule="evenodd" d="M8.00016 2.66666C5.05464 2.66666 2.66683 5.05448 2.66683 8C2.66683 10.9455 5.05464 13.3333 8.00016 13.3333C10.9457 13.3333 13.3335 10.9455 13.3335 8C13.3335 5.05448 10.9457 2.66666 8.00016 2.66666ZM1.3335 8C1.3335 4.3181 4.31826 1.33333 8.00016 1.33333C11.6821 1.33333 14.6668 4.3181 14.6668 8C14.6668 11.6819 11.6821 14.6667 8.00016 14.6667C4.31826 14.6667 1.3335 11.6819 1.3335 8Z" fill="#b17a45"/>
<path fill-rule="evenodd" clip-rule="evenodd" d="M6.86177 5.52859C7.12212 5.26824 7.54423 5.26824 7.80458 5.52859L9.80458 7.52859C10.0649 7.78894 10.0649 8.21105 9.80458 8.4714L7.80458 10.4714C7.54423 10.7317 7.12212 10.7317 6.86177 10.4714C6.60142 10.2111 6.60142 9.78894 6.86177 9.52859L8.39036 7.99999L6.86177 6.4714C6.60142 6.21105 6.60142 5.78894 6.86177 5.52859Z" fill="#b17a45"/>
</svg>
