<svg width="56" height="56" viewBox="0 0 56 56" fill="none" xmlns="http://www.w3.org/2000/svg">
<g id="Icon">
<path id="Shape" opacity="0.25" d="M7 21.9333C7 16.7062 7 14.0926 8.01727 12.0961C8.91209 10.3399 10.3399 8.91209 12.0961 8.01727C14.0926 7 16.7062 7 21.9333 7H34.0667C39.2938 7 41.9074 7 43.9039 8.01727C45.6601 8.91209 47.0879 10.3399 47.9827 12.0961C49 14.0926 49 16.7062 49 21.9333V34.0667C49 39.2938 49 41.9074 47.9827 43.9039C47.0879 45.6601 45.6601 47.0879 43.9039 47.9827C41.9074 49 39.2938 49 34.0667 49H21.9333C16.7062 49 14.0926 49 12.0961 47.9827C10.3399 47.0879 8.91209 45.6601 8.01727 43.9039C7 41.9074 7 39.2938 7 34.0667V21.9333Z" fill="#6A1C32"/>
<path id="Shape_2" fill-rule="evenodd" clip-rule="evenodd" d="M21.0002 18.6667C21.0002 17.378 19.9555 16.3334 18.6668 16.3334C17.3782 16.3334 16.3335 17.378 16.3335 18.6667V32.6667C16.3335 33.9554 17.3782 35 18.6668 35C19.9555 35 21.0002 33.9554 21.0002 32.6667V18.6667ZM28.0002 16.3334C29.2888 16.3334 30.3335 17.378 30.3335 18.6667V37.3334C30.3335 38.622 29.2888 39.6667 28.0002 39.6667C26.7115 39.6667 25.6668 38.622 25.6668 37.3334V18.6667C25.6668 17.378 26.7115 16.3334 28.0002 16.3334ZM37.3335 16.3334C38.6222 16.3334 39.6668 17.378 39.6668 18.6667V28C39.6668 29.2887 38.6222 30.3334 37.3335 30.3334C36.0448 30.3334 35.0002 29.2887 35.0002 28V18.6667C35.0002 17.378 36.0448 16.3334 37.3335 16.3334Z" fill="#6A1C32"/>
</g>
</svg>
